<svg width="315" height="142" viewBox="0 0 315 142" fill="none" xmlns="http://www.w3.org/2000/svg">
<rect x="3" y="3" width="309" height="136" rx="14" stroke="black" stroke-width="6" stroke-linejoin="round" stroke-dasharray="13 13"/>
<path d="M91.4034 61.8182V80H89.2017V61.8182H91.4034ZM97.629 71.7969V80H95.5338V66.3636H97.558V68.4943H97.7355C98.0551 67.8018 98.5405 67.2455 99.1915 66.8253C99.8425 66.3991 100.683 66.1861 101.713 66.1861C102.636 66.1861 103.444 66.3755 104.136 66.7543C104.829 67.1271 105.368 67.6953 105.752 68.4588C106.137 69.2164 106.329 70.1752 106.329 71.3352V80H104.234V71.4773C104.234 70.406 103.956 69.5715 103.4 68.9737C102.843 68.37 102.08 68.0682 101.109 68.0682C100.44 68.0682 99.8425 68.2132 99.3158 68.5032C98.795 68.7932 98.3836 69.2164 98.0818 69.7727C97.7799 70.3291 97.629 71.0038 97.629 71.7969ZM110.158 85.1136V66.3636H112.182V68.5298H112.431C112.584 68.2931 112.798 67.9912 113.07 67.6243C113.348 67.2514 113.744 66.92 114.259 66.63C114.78 66.334 115.485 66.1861 116.372 66.1861C117.521 66.1861 118.533 66.4731 119.409 67.0472C120.285 67.6213 120.968 68.4351 121.459 69.4886C121.951 70.5421 122.196 71.785 122.196 73.2173C122.196 74.6615 121.951 75.9132 121.459 76.9727C120.968 78.0262 120.287 78.8429 119.417 79.4229C118.547 79.997 117.544 80.2841 116.408 80.2841C115.532 80.2841 114.831 80.1391 114.304 79.8491C113.777 79.5531 113.372 79.2187 113.088 78.8459C112.803 78.4671 112.584 78.1534 112.431 77.9048H112.253V85.1136H110.158ZM112.218 73.1818C112.218 74.2116 112.368 75.1201 112.67 75.9073C112.972 76.6886 113.413 77.3011 113.993 77.745C114.573 78.183 115.283 78.402 116.124 78.402C117 78.402 117.731 78.1712 118.317 77.7095C118.908 77.242 119.352 76.6146 119.648 75.8274C119.95 75.0343 120.101 74.1525 120.101 73.1818C120.101 72.223 119.953 71.3589 119.657 70.5895C119.367 69.8142 118.926 69.2016 118.334 68.7518C117.748 68.296 117.012 68.0682 116.124 68.0682C115.271 68.0682 114.555 68.2842 113.975 68.7163C113.395 69.1424 112.957 69.7402 112.661 70.5096C112.365 71.2731 112.218 72.1638 112.218 73.1818ZM133.986 74.4247V66.3636H136.081V80H133.986V77.6918H133.844C133.524 78.3842 133.027 78.9731 132.352 79.4585C131.678 79.9379 130.825 80.1776 129.796 80.1776C128.943 80.1776 128.186 79.9911 127.523 79.6183C126.86 79.2395 126.339 78.6713 125.96 77.9137C125.582 77.1502 125.392 76.1884 125.392 75.0284V66.3636H127.487V74.8864C127.487 75.8807 127.766 76.6738 128.322 77.2656C128.884 77.8575 129.6 78.1534 130.47 78.1534C130.991 78.1534 131.521 78.0202 132.059 77.7539C132.604 77.4876 133.06 77.0792 133.427 76.5288C133.8 75.9783 133.986 75.277 133.986 74.4247ZM145.849 66.3636V68.1392H138.782V66.3636H145.849ZM140.842 63.0966H142.937V76.0938C142.937 76.6856 143.023 77.1295 143.195 77.4254C143.372 77.7154 143.597 77.9107 143.869 78.0114C144.147 78.1061 144.44 78.1534 144.748 78.1534C144.979 78.1534 145.168 78.1416 145.316 78.1179C145.464 78.0883 145.583 78.0646 145.671 78.0469L146.098 79.929C145.956 79.9822 145.757 80.0355 145.503 80.0888C145.248 80.148 144.926 80.1776 144.535 80.1776C143.943 80.1776 143.363 80.0503 142.795 79.7958C142.233 79.5413 141.765 79.1536 141.392 78.6328C141.025 78.112 140.842 77.455 140.842 76.6619V63.0966ZM158.518 61.8182V80H156.316V61.8182H158.518ZM162.648 80V66.3636H164.672V68.4943H164.85C165.134 67.7663 165.593 67.2011 166.226 66.7987C166.859 66.3903 167.62 66.1861 168.507 66.1861C169.407 66.1861 170.156 66.3903 170.754 66.7987C171.357 67.2011 171.828 67.7663 172.165 68.4943H172.307C172.656 67.79 173.18 67.2307 173.879 66.8164C174.577 66.3962 175.414 66.1861 176.391 66.1861C177.61 66.1861 178.607 66.5678 179.383 67.3313C180.158 68.0889 180.546 69.2696 180.546 70.8736V80H178.451V70.8736C178.451 69.8674 178.175 69.1483 177.625 68.7163C177.075 68.2842 176.426 68.0682 175.681 68.0682C174.722 68.0682 173.979 68.3582 173.452 68.9382C172.926 69.5123 172.662 70.2403 172.662 71.1222V80H170.532V70.6605C170.532 69.8852 170.28 69.2608 169.777 68.7873C169.274 68.3079 168.626 68.0682 167.833 68.0682C167.288 68.0682 166.779 68.2132 166.306 68.5032C165.838 68.7932 165.459 69.1957 165.169 69.7106C164.885 70.2196 164.743 70.8085 164.743 71.4773V80H162.648ZM188.389 80.3196C187.525 80.3196 186.741 80.1568 186.037 79.8313C185.332 79.4999 184.773 79.0234 184.359 78.402C183.945 77.7746 183.737 77.017 183.737 76.1293C183.737 75.348 183.891 74.7147 184.199 74.2294C184.507 73.7382 184.918 73.3535 185.433 73.0753C185.948 72.7971 186.516 72.59 187.138 72.4538C187.765 72.3118 188.395 72.1993 189.029 72.1165C189.857 72.0099 190.529 71.93 191.044 71.8768C191.565 71.8176 191.943 71.7199 192.18 71.5838C192.423 71.4477 192.544 71.2109 192.544 70.8736V70.8026C192.544 69.9266 192.305 69.246 191.825 68.7607C191.352 68.2753 190.633 68.0327 189.668 68.0327C188.668 68.0327 187.883 68.2517 187.315 68.6896C186.747 69.1276 186.347 69.5952 186.117 70.0923L184.128 69.3821C184.483 68.5535 184.957 67.9084 185.548 67.4467C186.146 66.9792 186.797 66.6536 187.502 66.4702C188.212 66.2808 188.91 66.1861 189.597 66.1861C190.035 66.1861 190.538 66.2393 191.106 66.3459C191.68 66.4465 192.233 66.6566 192.766 66.9762C193.305 67.2958 193.752 67.7782 194.107 68.4233C194.462 69.0684 194.639 69.9325 194.639 71.0156V80H192.544V78.1534H192.438C192.296 78.4493 192.059 78.766 191.727 79.1033C191.396 79.4407 190.955 79.7277 190.405 79.9645C189.854 80.2012 189.182 80.3196 188.389 80.3196ZM188.709 78.4375C189.538 78.4375 190.236 78.2747 190.804 77.9492C191.378 77.6237 191.81 77.2035 192.1 76.6886C192.396 76.1737 192.544 75.6321 192.544 75.0639V73.1463C192.455 73.2528 192.26 73.3505 191.958 73.4393C191.662 73.5221 191.319 73.5961 190.928 73.6612C190.544 73.7204 190.168 73.7737 189.801 73.821C189.44 73.8625 189.147 73.898 188.922 73.9276C188.378 73.9986 187.869 74.114 187.395 74.2738C186.927 74.4277 186.549 74.6615 186.259 74.9751C185.975 75.2829 185.833 75.7031 185.833 76.2358C185.833 76.9638 186.102 77.5142 186.64 77.8871C187.185 78.254 187.874 78.4375 188.709 78.4375ZM203.968 85.3977C202.956 85.3977 202.086 85.2675 201.358 85.0071C200.63 84.7526 200.023 84.4152 199.538 83.995C199.058 83.5807 198.677 83.1368 198.392 82.6634L200.062 81.4915C200.251 81.7401 200.491 82.0241 200.781 82.3438C201.071 82.6693 201.467 82.9504 201.97 83.1871C202.479 83.4298 203.145 83.5511 203.968 83.5511C205.069 83.5511 205.977 83.2848 206.693 82.7521C207.409 82.2195 207.767 81.3849 207.767 80.2486V77.4787H207.59C207.436 77.7273 207.217 78.035 206.933 78.402C206.655 78.763 206.252 79.0856 205.726 79.3697C205.205 79.6478 204.5 79.7869 203.613 79.7869C202.512 79.7869 201.523 79.5265 200.647 79.0057C199.777 78.4848 199.088 77.7273 198.579 76.733C198.076 75.7386 197.824 74.5312 197.824 73.1108C197.824 71.714 198.07 70.4978 198.561 69.462C199.052 68.4203 199.736 67.6154 200.612 67.0472C201.488 66.4731 202.5 66.1861 203.648 66.1861C204.536 66.1861 205.24 66.334 205.761 66.63C206.288 66.92 206.69 67.2514 206.968 67.6243C207.253 67.9912 207.472 68.2931 207.625 68.5298H207.839V66.3636H209.863V80.3906C209.863 81.5625 209.596 82.5154 209.064 83.2493C208.537 83.9891 207.827 84.5307 206.933 84.8739C206.045 85.2231 205.057 85.3977 203.968 85.3977ZM203.897 77.9048C204.737 77.9048 205.447 77.7125 206.027 77.3278C206.607 76.9431 207.048 76.3897 207.35 75.6676C207.652 74.9455 207.803 74.0814 207.803 73.0753C207.803 72.0928 207.655 71.2257 207.359 70.4741C207.063 69.7224 206.625 69.1335 206.045 68.7074C205.465 68.2812 204.749 68.0682 203.897 68.0682C203.009 68.0682 202.269 68.2931 201.677 68.7429C201.091 69.1927 200.65 69.7964 200.354 70.554C200.064 71.3116 199.919 72.152 199.919 73.0753C199.919 74.0223 200.067 74.8597 200.363 75.5877C200.665 76.3098 201.109 76.878 201.695 77.2923C202.287 77.7006 203.021 77.9048 203.897 77.9048ZM219.415 80.2841C218.101 80.2841 216.968 79.9941 216.015 79.4141C215.068 78.8281 214.337 78.0114 213.822 76.9638C213.313 75.9103 213.059 74.6851 213.059 73.2884C213.059 71.8916 213.313 70.6605 213.822 69.5952C214.337 68.5239 215.053 67.6894 215.971 67.0916C216.894 66.4879 217.971 66.1861 219.202 66.1861C219.912 66.1861 220.614 66.3045 221.306 66.5412C221.999 66.7779 222.629 67.1626 223.197 67.6953C223.765 68.2221 224.218 68.9205 224.555 69.7905C224.893 70.6605 225.062 71.7318 225.062 73.0043V73.892H214.55V72.081H222.931C222.931 71.3116 222.777 70.625 222.469 70.0213C222.167 69.4176 221.735 68.9412 221.173 68.592C220.617 68.2428 219.96 68.0682 219.202 68.0682C218.368 68.0682 217.646 68.2753 217.036 68.6896C216.432 69.098 215.968 69.6307 215.642 70.2876C215.317 70.9446 215.154 71.6489 215.154 72.4006V73.608C215.154 74.6378 215.331 75.5108 215.687 76.2269C216.048 76.9371 216.548 77.4787 217.187 77.8516C217.826 78.2185 218.569 78.402 219.415 78.402C219.966 78.402 220.463 78.325 220.907 78.1712C221.357 78.0114 221.744 77.7746 222.07 77.4609C222.395 77.1413 222.647 76.7448 222.824 76.2713L224.848 76.8395C224.635 77.526 224.277 78.1297 223.774 78.6506C223.271 79.1655 222.65 79.5679 221.91 79.858C221.17 80.142 220.339 80.2841 219.415 80.2841Z" fill="black"/>
</svg>
