<svg width="315" height="142" viewBox="0 0 315 142" fill="none" xmlns="http://www.w3.org/2000/svg">
<rect x="3" y="3" width="309" height="136" rx="14" stroke="black" stroke-width="6" stroke-linejoin="round" stroke-dasharray="13 13"/>
<path d="M89.2017 80V61.8182H95.3452C96.7656 61.8182 97.9316 62.0608 98.843 62.5462C99.7545 63.0256 100.429 63.6855 100.867 64.5259C101.305 65.3664 101.524 66.3222 101.524 67.3935C101.524 68.4647 101.305 69.4147 100.867 70.2433C100.429 71.0719 99.7575 71.7229 98.8519 72.1964C97.9464 72.6639 96.7893 72.8977 95.3807 72.8977H90.4091V70.9091H95.3097C96.2803 70.9091 97.0616 70.767 97.6534 70.483C98.2512 70.1989 98.6832 69.7964 98.9496 69.2756C99.2218 68.7488 99.358 68.1214 99.358 67.3935C99.358 66.6655 99.2218 66.0292 98.9496 65.4847C98.6773 64.9402 98.2423 64.52 97.6445 64.2241C97.0468 63.9222 96.2566 63.7713 95.2741 63.7713H91.4034V80H89.2017ZM97.7599 71.8324L102.234 80H99.6776L95.2741 71.8324H97.7599ZM110.48 80.2841C109.166 80.2841 108.032 79.9941 107.079 79.4141C106.132 78.8281 105.402 78.0114 104.887 76.9638C104.378 75.9103 104.123 74.6851 104.123 73.2884C104.123 71.8916 104.378 70.6605 104.887 69.5952C105.402 68.5239 106.118 67.6894 107.035 67.0916C107.958 66.4879 109.036 66.1861 110.267 66.1861C110.977 66.1861 111.678 66.3045 112.371 66.5412C113.063 66.7779 113.693 67.1626 114.262 67.6953C114.83 68.2221 115.283 68.9205 115.62 69.7905C115.957 70.6605 116.126 71.7318 116.126 73.0043V73.892H105.615V72.081H113.995C113.995 71.3116 113.841 70.625 113.534 70.0213C113.232 69.4176 112.8 68.9412 112.237 68.592C111.681 68.2428 111.024 68.0682 110.267 68.0682C109.432 68.0682 108.71 68.2753 108.1 68.6896C107.497 69.098 107.032 69.6307 106.707 70.2876C106.381 70.9446 106.218 71.6489 106.218 72.4006V73.608C106.218 74.6378 106.396 75.5108 106.751 76.2269C107.112 76.9371 107.612 77.4787 108.251 77.8516C108.891 78.2185 109.633 78.402 110.48 78.402C111.03 78.402 111.527 78.325 111.971 78.1712C112.421 78.0114 112.809 77.7746 113.134 77.4609C113.46 77.1413 113.711 76.7448 113.889 76.2713L115.913 76.8395C115.7 77.526 115.342 78.1297 114.839 78.6506C114.336 79.1655 113.714 79.5679 112.974 79.858C112.235 80.142 111.403 80.2841 110.48 80.2841ZM128.972 69.4176L127.09 69.9503C126.972 69.6366 126.797 69.3318 126.566 69.0359C126.341 68.734 126.034 68.4854 125.643 68.2901C125.252 68.0948 124.752 67.9972 124.143 67.9972C123.308 67.9972 122.613 68.1895 122.056 68.5742C121.506 68.953 121.231 69.4354 121.231 70.0213C121.231 70.5421 121.42 70.9535 121.799 71.2553C122.178 71.5572 122.77 71.8087 123.574 72.0099L125.599 72.5071C126.818 72.803 127.726 73.2558 128.324 73.8654C128.922 74.4691 129.221 75.2474 129.221 76.2003C129.221 76.9815 128.996 77.6799 128.546 78.2955C128.102 78.911 127.481 79.3963 126.682 79.7514C125.883 80.1065 124.954 80.2841 123.894 80.2841C122.503 80.2841 121.352 79.9822 120.441 79.3786C119.529 78.7749 118.952 77.893 118.709 76.733L120.698 76.2358C120.887 76.9697 121.246 77.5201 121.772 77.8871C122.305 78.254 123 78.4375 123.859 78.4375C124.835 78.4375 125.61 78.2304 126.185 77.8161C126.765 77.3958 127.055 76.8928 127.055 76.3068C127.055 75.8333 126.889 75.4368 126.557 75.1172C126.226 74.7917 125.717 74.549 125.03 74.3892L122.758 73.8565C121.509 73.5606 120.592 73.1019 120.006 72.4805C119.426 71.8531 119.136 71.0689 119.136 70.1278C119.136 69.3584 119.352 68.6778 119.784 68.0859C120.222 67.4941 120.816 67.0295 121.568 66.6921C122.326 66.3548 123.184 66.1861 124.143 66.1861C125.492 66.1861 126.552 66.482 127.321 67.0739C128.096 67.6657 128.647 68.447 128.972 69.4176ZM140.968 74.4247V66.3636H143.064V80H140.968V77.6918H140.826C140.507 78.3842 140.01 78.9731 139.335 79.4585C138.66 79.9379 137.808 80.1776 136.778 80.1776C135.926 80.1776 135.168 79.9911 134.505 79.6183C133.842 79.2395 133.322 78.6713 132.943 77.9137C132.564 77.1502 132.375 76.1884 132.375 75.0284V66.3636H134.47V74.8864C134.47 75.8807 134.748 76.6738 135.304 77.2656C135.867 77.8575 136.583 78.1534 137.453 78.1534C137.974 78.1534 138.503 78.0202 139.042 77.7539C139.586 77.4876 140.042 77.0792 140.409 76.5288C140.782 75.9783 140.968 75.277 140.968 74.4247ZM148.996 61.8182V80H146.901V61.8182H148.996ZM158.764 66.3636V68.1392H151.697V66.3636H158.764ZM153.757 63.0966H155.852V76.0938C155.852 76.6856 155.938 77.1295 156.11 77.4254C156.287 77.7154 156.512 77.9107 156.784 78.0114C157.062 78.1061 157.355 78.1534 157.663 78.1534C157.894 78.1534 158.083 78.1416 158.231 78.1179C158.379 78.0883 158.498 78.0646 158.586 78.0469L159.013 79.929C158.871 79.9822 158.672 80.0355 158.418 80.0888C158.163 80.148 157.841 80.1776 157.45 80.1776C156.858 80.1776 156.278 80.0503 155.71 79.7958C155.148 79.5413 154.68 79.1536 154.307 78.6328C153.94 78.112 153.757 77.455 153.757 76.6619V63.0966ZM171.433 61.8182V80H169.231V61.8182H171.433ZM175.563 80V66.3636H177.587V68.4943H177.765C178.049 67.7663 178.508 67.2011 179.141 66.7987C179.774 66.3903 180.535 66.1861 181.422 66.1861C182.322 66.1861 183.071 66.3903 183.669 66.7987C184.272 67.2011 184.743 67.7663 185.08 68.4943H185.222C185.571 67.79 186.095 67.2307 186.794 66.8164C187.492 66.3962 188.329 66.1861 189.306 66.1861C190.525 66.1861 191.523 66.5678 192.298 67.3313C193.073 68.0889 193.461 69.2696 193.461 70.8736V80H191.366V70.8736C191.366 69.8674 191.09 69.1483 190.54 68.7163C189.99 68.2842 189.342 68.0682 188.596 68.0682C187.637 68.0682 186.894 68.3582 186.367 68.9382C185.841 69.5123 185.577 70.2403 185.577 71.1222V80H183.447V70.6605C183.447 69.8852 183.195 69.2608 182.692 68.7873C182.189 68.3079 181.541 68.0682 180.748 68.0682C180.203 68.0682 179.694 68.2132 179.221 68.5032C178.753 68.7932 178.374 69.1957 178.084 69.7106C177.8 70.2196 177.658 70.8085 177.658 71.4773V80H175.563ZM201.304 80.3196C200.44 80.3196 199.656 80.1568 198.952 79.8313C198.247 79.4999 197.688 79.0234 197.274 78.402C196.86 77.7746 196.652 77.017 196.652 76.1293C196.652 75.348 196.806 74.7147 197.114 74.2294C197.422 73.7382 197.833 73.3535 198.348 73.0753C198.863 72.7971 199.431 72.59 200.053 72.4538C200.68 72.3118 201.31 72.1993 201.944 72.1165C202.772 72.0099 203.444 71.93 203.959 71.8768C204.48 71.8176 204.859 71.7199 205.095 71.5838C205.338 71.4477 205.459 71.2109 205.459 70.8736V70.8026C205.459 69.9266 205.22 69.246 204.74 68.7607C204.267 68.2753 203.548 68.0327 202.583 68.0327C201.583 68.0327 200.798 68.2517 200.23 68.6896C199.662 69.1276 199.263 69.5952 199.032 70.0923L197.043 69.3821C197.398 68.5535 197.872 67.9084 198.464 67.4467C199.061 66.9792 199.712 66.6536 200.417 66.4702C201.127 66.2808 201.825 66.1861 202.512 66.1861C202.95 66.1861 203.453 66.2393 204.021 66.3459C204.595 66.4465 205.149 66.6566 205.681 66.9762C206.22 67.2958 206.667 67.7782 207.022 68.4233C207.377 69.0684 207.554 69.9325 207.554 71.0156V80H205.459V78.1534H205.353C205.211 78.4493 204.974 78.766 204.642 79.1033C204.311 79.4407 203.87 79.7277 203.32 79.9645C202.769 80.2012 202.098 80.3196 201.304 80.3196ZM201.624 78.4375C202.453 78.4375 203.151 78.2747 203.719 77.9492C204.293 77.6237 204.725 77.2035 205.015 76.6886C205.311 76.1737 205.459 75.6321 205.459 75.0639V73.1463C205.37 73.2528 205.175 73.3505 204.873 73.4393C204.577 73.5221 204.234 73.5961 203.843 73.6612C203.459 73.7204 203.083 73.7737 202.716 73.821C202.355 73.8625 202.062 73.898 201.837 73.9276C201.293 73.9986 200.784 74.114 200.31 74.2738C199.843 74.4277 199.464 74.6615 199.174 74.9751C198.89 75.2829 198.748 75.7031 198.748 76.2358C198.748 76.9638 199.017 77.5142 199.555 77.8871C200.1 78.254 200.79 78.4375 201.624 78.4375ZM216.883 85.3977C215.871 85.3977 215.001 85.2675 214.273 85.0071C213.545 84.7526 212.938 84.4152 212.453 83.995C211.973 83.5807 211.592 83.1368 211.308 82.6634L212.977 81.4915C213.166 81.7401 213.406 82.0241 213.696 82.3438C213.986 82.6693 214.382 82.9504 214.885 83.1871C215.394 83.4298 216.06 83.5511 216.883 83.5511C217.984 83.5511 218.892 83.2848 219.608 82.7521C220.324 82.2195 220.683 81.3849 220.683 80.2486V77.4787H220.505C220.351 77.7273 220.132 78.035 219.848 78.402C219.57 78.763 219.167 79.0856 218.641 79.3697C218.12 79.6478 217.415 79.7869 216.528 79.7869C215.427 79.7869 214.438 79.5265 213.562 79.0057C212.692 78.4848 212.003 77.7273 211.494 76.733C210.991 75.7386 210.739 74.5312 210.739 73.1108C210.739 71.714 210.985 70.4978 211.476 69.462C211.967 68.4203 212.651 67.6154 213.527 67.0472C214.403 66.4731 215.415 66.1861 216.563 66.1861C217.451 66.1861 218.155 66.334 218.676 66.63C219.203 66.92 219.605 67.2514 219.884 67.6243C220.168 67.9912 220.387 68.2931 220.54 68.5298H220.754V66.3636H222.778V80.3906C222.778 81.5625 222.511 82.5154 221.979 83.2493C221.452 83.9891 220.742 84.5307 219.848 84.8739C218.96 85.2231 217.972 85.3977 216.883 85.3977ZM216.812 77.9048C217.652 77.9048 218.362 77.7125 218.942 77.3278C219.522 76.9431 219.963 76.3897 220.265 75.6676C220.567 74.9455 220.718 74.0814 220.718 73.0753C220.718 72.0928 220.57 71.2257 220.274 70.4741C219.978 69.7224 219.54 69.1335 218.96 68.7074C218.38 68.2812 217.664 68.0682 216.812 68.0682C215.924 68.0682 215.184 68.2931 214.592 68.7429C214.006 69.1927 213.565 69.7964 213.27 70.554C212.98 71.3116 212.835 72.152 212.835 73.0753C212.835 74.0223 212.982 74.8597 213.278 75.5877C213.58 76.3098 214.024 76.878 214.61 77.2923C215.202 77.7006 215.936 77.9048 216.812 77.9048ZM232.33 80.2841C231.016 80.2841 229.883 79.9941 228.93 79.4141C227.983 78.8281 227.252 78.0114 226.737 76.9638C226.228 75.9103 225.974 74.6851 225.974 73.2884C225.974 71.8916 226.228 70.6605 226.737 69.5952C227.252 68.5239 227.968 67.6894 228.886 67.0916C229.809 66.4879 230.886 66.1861 232.117 66.1861C232.827 66.1861 233.529 66.3045 234.221 66.5412C234.914 66.7779 235.544 67.1626 236.112 67.6953C236.68 68.2221 237.133 68.9205 237.471 69.7905C237.808 70.6605 237.977 71.7318 237.977 73.0043V73.892H227.465V72.081H235.846C235.846 71.3116 235.692 70.625 235.384 70.0213C235.082 69.4176 234.65 68.9412 234.088 68.592C233.532 68.2428 232.875 68.0682 232.117 68.0682C231.283 68.0682 230.561 68.2753 229.951 68.6896C229.347 69.098 228.883 69.6307 228.557 70.2876C228.232 70.9446 228.069 71.6489 228.069 72.4006V73.608C228.069 74.6378 228.246 75.5108 228.602 76.2269C228.963 76.9371 229.463 77.4787 230.102 77.8516C230.741 78.2185 231.484 78.402 232.33 78.402C232.881 78.402 233.378 78.325 233.822 78.1712C234.272 78.0114 234.659 77.7746 234.985 77.4609C235.31 77.1413 235.562 76.7448 235.739 76.2713L237.763 76.8395C237.55 77.526 237.192 78.1297 236.689 78.6506C236.186 79.1655 235.565 79.5679 234.825 79.858C234.085 80.142 233.254 80.2841 232.33 80.2841Z" fill="black"/>
</svg>
